<svg width="756" height="114" viewBox="0 0 756 114" fill="none" xmlns="http://www.w3.org/2000/svg">
<path d="M0.244314 1.22028H33.2015C68.1116 1.22028 90.3274 23.9272 90.3274 56.4004C90.3274 88.873 68.8439 111.336 33.4458 111.336H0V1.22028H0.244314ZM32.7135 99.1277C59.5673 99.1277 76.4121 81.3045 76.4121 56.4004C76.4121 31.2519 59.0792 13.4282 33.2015 13.4282H13.6715V99.1277H32.7135Z" fill="#033349"/>
<path d="M101.313 74.2241C101.313 52.0055 116.693 34.9142 138.176 34.9142C149.406 34.9142 159.171 40.2859 164.542 49.3199L164.786 49.0756V35.6467H177.237V111.092H165.03V97.4189H164.786C159.415 106.453 150.138 112.068 137.688 112.068C117.425 112.313 101.313 97.1746 101.313 74.2241ZM165.274 74.2241C165.274 58.5978 154.776 46.39 139.885 46.39C125.725 46.39 114.007 57.3772 114.007 74.2241C114.007 89.3617 124.505 100.837 139.885 100.837C154.044 100.837 165.274 90.3385 165.274 74.2241Z" fill="#033349"/>
<path d="M198.475 88.873V46.6339H188.71V35.8911H198.475V10.254L210.926 8.789V35.8911H235.827V46.6339H210.926V86.92C210.926 95.954 212.879 100.349 220.203 100.349C224.597 100.349 229.235 98.3952 233.141 96.4421L236.315 107.429C232.165 109.871 227.038 112.068 218.005 112.068C204.578 112.312 198.475 104.255 198.475 88.873Z" fill="#033349"/>
<path d="M241.198 74.2241C241.198 52.0055 256.578 34.9142 278.061 34.9142C289.291 34.9142 299.056 40.2859 304.427 49.3199L304.671 49.0756V35.6467H317.122V111.092H304.915V97.4189H304.671C299.3 106.453 290.023 112.068 277.573 112.068C257.066 112.313 241.198 97.1746 241.198 74.2241ZM305.159 74.2241C305.159 58.5978 294.662 46.39 279.77 46.39C265.611 46.39 253.892 57.3772 253.892 74.2241C253.892 89.3617 264.39 100.837 279.77 100.837C293.685 100.837 305.159 90.3385 305.159 74.2241Z" fill="#033349"/>
<path d="M448.708 81.3056V35.6478H468.971V76.1783C468.971 90.0953 473.117 94.7339 482.639 94.7339C491.427 94.7339 499.485 87.1654 499.485 72.7597V35.8922H519.993V111.825H499.24V102.547L498.996 102.303C493.135 109.383 485.083 112.802 476.779 112.802C460.178 112.802 448.708 104.5 448.708 81.3056Z" fill="#033349"/>
<path d="M531.708 73.7349C531.708 50.7844 547.09 34.4256 567.353 34.4256C576.141 34.4256 584.199 37.8436 589.814 44.4359L590.054 44.1916V35.4019H610.317V111.335H591.033V102.546L590.788 102.301C585.418 109.138 577.849 112.8 568.082 112.8C547.09 112.8 531.708 97.1741 531.708 73.7349ZM591.033 73.9792C591.033 61.7709 582.73 52.7375 571.744 52.7375C560.758 52.7375 552.461 61.0385 552.461 73.9792C552.461 86.1869 560.274 94.7328 571.744 94.7328C582.001 94.4885 591.033 86.4313 591.033 73.9792Z" fill="#033349"/>
<path d="M626.433 35.6462H646.696V46.6333H646.936C652.796 38.8204 660.854 34.4256 669.642 34.4256H671.105V56.6442C668.907 56.3998 666.959 56.3998 665.735 56.3998C653.286 56.3998 646.451 64.7014 646.451 76.1766V111.335H626.188V35.6462H626.433Z" fill="#033349"/>
<path d="M676.476 73.7354C676.476 50.7844 692.103 34.4256 712.366 34.4256C721.643 34.4256 729.696 37.8442 735.311 44.4365H735.556V8.789H755.819V111.58H736.536V102.302H736.046C730.675 109.139 722.862 113.045 712.611 113.045C691.858 112.801 676.476 97.1746 676.476 73.7354ZM736.291 73.9792C736.291 61.7715 727.987 52.738 716.517 52.738C705.771 52.738 697.228 61.039 697.228 73.9792C697.228 86.1875 705.287 94.7328 716.517 94.7328C727.743 94.489 736.291 86.4318 736.291 73.9792Z" fill="#033349"/>
<path d="M391.092 51.5174V69.0968H411.844V86.4318C404.765 90.8267 397.686 92.7803 389.628 92.7803C368.877 92.7803 356.182 76.9102 356.182 56.6447C356.182 34.1823 370.342 20.7535 388.654 20.7535C400.859 20.7535 410.136 25.3926 416.97 32.2287L432.352 18.8004C421.121 6.34831 404.276 0 388.654 0C354.229 0 333.478 24.4158 333.478 56.6447C333.478 92.0478 357.891 112.557 389.628 112.557C406.474 112.557 423.075 106.942 433.081 98.8844V51.5174H391.092Z" fill="#033349"/>
</svg>
